# Blender v2.79 (sub 0) OBJ File: 'ramp.blend'
# www.blender.org
mtllib ramp.mtl
o Cube
v 50.000000 -0.100000 -10.000000
v 50.000000 -0.100000 10.000000
v -50.000004 -0.100000 9.999998
v -49.999981 -0.100000 -10.000004
v 50.000019 0.100000 -9.999996
v 49.999969 0.100000 10.000006
v -50.000019 0.100000 9.999996
v -49.999996 0.100000 -10.000000
vt 0.492611 0.000000
vt 0.985221 0.000000
vt 0.985221 1.000000
vt 0.492611 0.999999
vt 0.492610 0.000000
vt 0.492611 1.000000
vt 0.000001 1.000000
vt 0.000000 0.000000
vt 1.000000 0.200000
vt 0.995074 0.200000
vt 0.995074 0.000000
vt 1.000000 0.000000
vt 0.990148 1.000000
vt 0.985221 1.000000
vt 0.985221 0.000000
vt 0.990147 0.000000
vt 1.000000 0.400000
vt 0.995074 0.400000
vt 0.995074 0.200000
vt 1.000000 0.200000
vt 0.990148 0.000000
vt 0.995074 0.000000
vt 0.995074 1.000000
vt 0.990148 1.000000
vn 0.0000 -1.0000 0.0000
vn 0.0000 1.0000 0.0000
vn 1.0000 0.0000 0.0000
vn -0.0000 -0.0000 1.0000
vn -1.0000 -0.0001 -0.0000
vn 0.0000 0.0000 -1.0000
usemtl Main
s off
f 1/1/1 2/2/1 3/3/1 4/4/1
f 5/5/2 8/6/2 7/7/2 6/8/2
f 1/9/3 5/10/3 6/11/3 2/12/3
f 2/13/4 6/14/4 7/15/4 3/16/4
f 3/17/5 7/18/5 8/19/5 4/20/5
f 5/21/6 1/22/6 4/23/6 8/24/6
